<svg id="Layer_1" data-name="Layer 1" xmlns="http://www.w3.org/2000/svg" width="485.68" height="64.91" viewBox="0 0 485.68 64.91">
  <defs>
    <style>
      .cls-1 {
        fill: #2BF6D7;
      }
    </style>
  </defs>
  <g>
    <path class="cls-1" d="M18.73,25.5h-2L6.86,4.78,3.25,25.5h-2L5.41,1.33h2L17.3,22.06,20.9,1.33h2Z" transform="translate(-1.21 0)"/>
    <path class="cls-1" d="M26.55,25.5h-2l3.14-18h2ZM28.24,2.34c.05-.72.53-1.17,1.43-1.36a1.61,1.61,0,0,1,.92.41,1.72,1.72,0,0,1,.36,1,1.94,1.94,0,0,1-.49.92,1.83,1.83,0,0,1-.94.42C28.62,3.55,28.19,3.1,28.24,2.34Z" transform="translate(-1.21 0)"/>
    <path class="cls-1" d="M39,25.83a6.23,6.23,0,0,1-3.73-1.2A6.77,6.77,0,0,1,33,21.44a10,10,0,0,1-.52-4.36l.05-.56A11.93,11.93,0,0,1,34,11.78a9.16,9.16,0,0,1,3.15-3.44A7.3,7.3,0,0,1,41.21,7.2,5.61,5.61,0,0,1,44.6,8.3a6,6,0,0,1,2,3,10,10,0,0,1,.4,4.18l-.14,1.21H34.45l-.05.4a7.86,7.86,0,0,0,.26,3.46,5.41,5.41,0,0,0,1.69,2.62,4.39,4.39,0,0,0,2.81,1A5.73,5.73,0,0,0,42,23.52a9.13,9.13,0,0,0,2.35-1.77l1.16.94A7.84,7.84,0,0,1,39,25.83ZM41.11,8.9a5.15,5.15,0,0,0-3.87,1.53A10,10,0,0,0,34.66,15H45.09l0-.25a5.77,5.77,0,0,0-.83-4.05A3.75,3.75,0,0,0,41.11,8.9Z" transform="translate(-1.21 0)"/>
    <path class="cls-1" d="M61,23.24a6.89,6.89,0,0,1-5.91,2.59A4.4,4.4,0,0,1,51.32,24a7.16,7.16,0,0,1-.9-5l1.92-11.5h2L52.39,19.09a8.83,8.83,0,0,0,0,1.78,3.68,3.68,0,0,0,.91,2.35,3,3,0,0,0,2.19.88,6.51,6.51,0,0,0,3.69-.92,4.58,4.58,0,0,0,2.19-2.63l2.22-13h2l-3.12,18H60.53Z" transform="translate(-1.21 0)"/>
    <path class="cls-1" d="M72.28,21.37v1.41l.65-1.55L79.49,7.54h1.69L83,21.27l.1,1.69.68-1.71L89.68,7.54h2.11l-8.2,18H81.9l-2-14.24,0-1-.38,1L72.65,25.5H71l-1.91-18,1.86,0Z" transform="translate(-1.21 0)"/>
    <path class="cls-1" d="M99.53,25.83a6.26,6.26,0,0,1-3.74-1.2,6.76,6.76,0,0,1-2.31-3.19A9.83,9.83,0,0,1,93,17.08l0-.56a12.09,12.09,0,0,1,1.48-4.74,9.16,9.16,0,0,1,3.15-3.44,7.35,7.35,0,0,1,4.09-1.14,5.59,5.59,0,0,1,3.39,1.1,5.94,5.94,0,0,1,2,3,10,10,0,0,1,.4,4.18l-.13,1.21H95l0,.4a7.86,7.86,0,0,0,.27,3.46,5.33,5.33,0,0,0,1.68,2.62,4.4,4.4,0,0,0,2.82,1,5.69,5.69,0,0,0,2.87-.62,9.18,9.18,0,0,0,2.36-1.77l1.16.94a8.15,8.15,0,0,1-2.88,2.37A8,8,0,0,1,99.53,25.83ZM101.62,8.9a5.15,5.15,0,0,0-3.87,1.53A9.85,9.85,0,0,0,95.18,15H105.6l.05-.25a5.77,5.77,0,0,0-.83-4.05A3.75,3.75,0,0,0,101.62,8.9Z" transform="translate(-1.21 0)"/>
    <path class="cls-1" d="M126,1.33l6.21,17.53,6.18-17.53h6.54V25.5h-5V18.89l.5-11.4-6.52,18h-3.42L124,7.5l.5,11.39V25.5h-5V1.33Z" transform="translate(-1.21 0)"/>
    <path class="cls-1" d="M159.34,25.5a5.38,5.38,0,0,1-.48-1.61,5.81,5.81,0,0,1-4.53,1.94A6.39,6.39,0,0,1,150,24.3a4.91,4.91,0,0,1-1.73-3.85,5.06,5.06,0,0,1,2.12-4.38,10.41,10.41,0,0,1,6.11-1.54h2.21v-1a3,3,0,0,0-.64-2,2.53,2.53,0,0,0-2-.74,2.86,2.86,0,0,0-1.9.58,2,2,0,0,0-.68,1.59h-4.8a4.84,4.84,0,0,1,1-2.89A6.37,6.37,0,0,1,152.3,8a10,10,0,0,1,3.95-.76,7.84,7.84,0,0,1,5.27,1.67,5.83,5.83,0,0,1,2,4.69v7.79a8.55,8.55,0,0,0,.71,3.87v.28Zm-4-3.34a4.17,4.17,0,0,0,2-.47,3.15,3.15,0,0,0,1.33-1.27V17.33h-1.79q-3.6,0-3.84,2.49v.28a1.93,1.93,0,0,0,.63,1.48A2.42,2.42,0,0,0,155.37,22.16Z" transform="translate(-1.21 0)"/>
    <path class="cls-1" d="M177.25,12a12.76,12.76,0,0,0-1.72-.14c-1.82,0-3,.62-3.57,1.85V25.5h-4.8v-18h4.53l.14,2.14a4.44,4.44,0,0,1,4-2.48,5.11,5.11,0,0,1,1.49.22Z" transform="translate(-1.21 0)"/>
    <path class="cls-1" d="M179.53,2.89a2.38,2.38,0,0,1,.72-1.78,3.11,3.11,0,0,1,3.93,0,2.39,2.39,0,0,1,.73,1.78,2.35,2.35,0,0,1-.74,1.79,3.07,3.07,0,0,1-3.9,0A2.35,2.35,0,0,1,179.53,2.89Zm5.1,22.61h-4.82v-18h4.82Z" transform="translate(-1.21 0)"/>
    <path class="cls-1" d="M194.32,3.12V7.54h3.07v3.52h-3.07v9a2.19,2.19,0,0,0,.38,1.43,1.91,1.91,0,0,0,1.46.43,7.45,7.45,0,0,0,1.42-.12V25.4a9.86,9.86,0,0,1-2.91.43q-5,0-5.15-5.1V11.06H186.9V7.54h2.62V3.12Z" transform="translate(-1.21 0)"/>
    <path class="cls-1" d="M200,2.89a2.38,2.38,0,0,1,.72-1.78,3.11,3.11,0,0,1,3.93,0,2.35,2.35,0,0,1,.73,1.78,2.35,2.35,0,0,1-.74,1.79,3.07,3.07,0,0,1-3.9,0A2.35,2.35,0,0,1,200,2.89Zm5.1,22.61h-4.82v-18h4.82Z" transform="translate(-1.21 0)"/>
    <path class="cls-1" d="M217.35,25.83a8.86,8.86,0,0,1-6.44-2.42A8.64,8.64,0,0,1,208.43,17v-.47a10.78,10.78,0,0,1,1-4.83,7.64,7.64,0,0,1,3-3.29,8.33,8.33,0,0,1,4.38-1.16,7.46,7.46,0,0,1,5.8,2.33,9.46,9.46,0,0,1,2.12,6.59v2H213.3a4.44,4.44,0,0,0,1.4,2.82,4.23,4.23,0,0,0,3,1.06A5.19,5.19,0,0,0,222,20l2.35,2.64A7.19,7.19,0,0,1,221.43,25,9.58,9.58,0,0,1,217.35,25.83Zm-.55-14.76a3,3,0,0,0-2.32,1,5,5,0,0,0-1.13,2.77H220v-.39a3.57,3.57,0,0,0-.86-2.47A3.09,3.09,0,0,0,216.8,11.07Z" transform="translate(-1.21 0)"/>
    <path class="cls-1" d="M232,7.54l.15,2a6.28,6.28,0,0,1,5.16-2.35A4.79,4.79,0,0,1,242,9.94a6.19,6.19,0,0,1,5.4-2.74,5.34,5.34,0,0,1,4.35,1.71A7.82,7.82,0,0,1,253.21,14V25.5h-4.82V14a3.42,3.42,0,0,0-.6-2.23,2.63,2.63,0,0,0-2.1-.7,3,3,0,0,0-3,2.05V25.5h-4.79V14.06a3.39,3.39,0,0,0-.62-2.26,2.68,2.68,0,0,0-2.09-.69,3.09,3.09,0,0,0-3,1.69V25.5h-4.8v-18Z" transform="translate(-1.21 0)"/>
    <path class="cls-1" d="M265.16,25.83a8.83,8.83,0,0,1-6.43-2.42A8.6,8.6,0,0,1,256.25,17v-.47a10.78,10.78,0,0,1,1-4.83,7.71,7.71,0,0,1,3-3.29,8.33,8.33,0,0,1,4.38-1.16,7.45,7.45,0,0,1,5.8,2.33,9.46,9.46,0,0,1,2.12,6.59v2H261.11a4.44,4.44,0,0,0,1.4,2.82,4.24,4.24,0,0,0,3,1.06,5.18,5.18,0,0,0,4.33-2l2.36,2.64A7.22,7.22,0,0,1,269.24,25,9.55,9.55,0,0,1,265.16,25.83Zm-.55-14.76a3,3,0,0,0-2.31,1,5,5,0,0,0-1.14,2.77h6.67v-.39A3.57,3.57,0,0,0,267,12,3.07,3.07,0,0,0,264.61,11.07Z" transform="translate(-1.21 0)"/>
    <path class="cls-1" d="M303.18,22.44a8.63,8.63,0,0,1-3.8,2.5,16,16,0,0,1-5.45.89,10.79,10.79,0,0,1-5.5-1.37,9.08,9.08,0,0,1-3.65-4,14,14,0,0,1-1.32-6.13V12.72a14.74,14.74,0,0,1,1.22-6.27A8.91,8.91,0,0,1,288.2,2.4a11.6,11.6,0,0,1,12.11.65,8.76,8.76,0,0,1,2.87,6h-4.85a4.79,4.79,0,0,0-1.47-3,4.65,4.65,0,0,0-3.13-1,4.44,4.44,0,0,0-3.87,1.91,10.11,10.11,0,0,0-1.34,5.68v1.54A9.6,9.6,0,0,0,290,19.89a5,5,0,0,0,4.24,1.94,5.56,5.56,0,0,0,4-1.19V16.47h-4.53V12.8h9.51Z" transform="translate(-1.21 0)"/>
    <path class="cls-1" d="M315.16,25.83a8.85,8.85,0,0,1-6.43-2.42A8.64,8.64,0,0,1,306.25,17v-.47a10.91,10.91,0,0,1,1-4.83,7.66,7.66,0,0,1,3-3.29,8.32,8.32,0,0,1,4.37-1.16,7.45,7.45,0,0,1,5.8,2.33,9.41,9.41,0,0,1,2.12,6.59v2H311.11a4.5,4.5,0,0,0,1.41,2.82,4.21,4.21,0,0,0,3,1.06,5.17,5.17,0,0,0,4.33-2l2.36,2.64A7.19,7.19,0,0,1,319.25,25,9.6,9.6,0,0,1,315.16,25.83Zm-.54-14.76a3,3,0,0,0-2.32,1,5,5,0,0,0-1.14,2.77h6.68v-.39A3.57,3.57,0,0,0,317,12,3.06,3.06,0,0,0,314.62,11.07Z" transform="translate(-1.21 0)"/>
    <path class="cls-1" d="M335,20.54a1.55,1.55,0,0,0-.87-1.39,9.88,9.88,0,0,0-2.8-.91c-4.27-.89-6.4-2.71-6.4-5.44a4.93,4.93,0,0,1,2-4A8,8,0,0,1,332.1,7.2a8.64,8.64,0,0,1,5.47,1.61A5.11,5.11,0,0,1,339.62,13h-4.8a2.31,2.31,0,0,0-.66-1.7,2.83,2.83,0,0,0-2.08-.68,2.87,2.87,0,0,0-1.87.55,1.72,1.72,0,0,0-.67,1.4,1.45,1.45,0,0,0,.76,1.28,7.68,7.68,0,0,0,2.54.85,20.89,20.89,0,0,1,3,.81c2.53.92,3.8,2.54,3.8,4.83a4.7,4.7,0,0,1-2.11,4,9.13,9.13,0,0,1-5.45,1.52,9.55,9.55,0,0,1-4-.8,6.76,6.76,0,0,1-2.75-2.21,5.12,5.12,0,0,1-1-3h4.55a2.5,2.5,0,0,0,.95,2,3.75,3.75,0,0,0,2.35.68,3.56,3.56,0,0,0,2.09-.52A1.63,1.63,0,0,0,335,20.54Z" transform="translate(-1.21 0)"/>
    <path class="cls-1" d="M350.23,22a3.11,3.11,0,0,0,2.15-.73,2.52,2.52,0,0,0,.87-1.94h4.5a6.2,6.2,0,0,1-1,3.35A6.59,6.59,0,0,1,354.07,25a8.37,8.37,0,0,1-3.76.84,7.79,7.79,0,0,1-6.08-2.45A9.68,9.68,0,0,1,342,16.62V16.3a9.59,9.59,0,0,1,2.21-6.62,7.7,7.7,0,0,1,6.06-2.48,7.56,7.56,0,0,1,5.4,1.92,6.81,6.81,0,0,1,2.07,5.11h-4.5a3.25,3.25,0,0,0-.87-2.28,2.85,2.85,0,0,0-2.19-.88,2.91,2.91,0,0,0-2.53,1.22,7.11,7.11,0,0,0-.85,4v.5a7.22,7.22,0,0,0,.84,4A2.94,2.94,0,0,0,350.23,22Z" transform="translate(-1.21 0)"/>
    <path class="cls-1" d="M365.17,9.5A6,6,0,0,1,370,7.2q5.83,0,5.92,6.79V25.5h-4.8V14.13a3.38,3.38,0,0,0-.66-2.29,2.85,2.85,0,0,0-2.21-.73,3.27,3.27,0,0,0-3.05,1.62V25.5h-4.8V0h4.8Z" transform="translate(-1.21 0)"/>
    <path class="cls-1" d="M379.48,2.89a2.38,2.38,0,0,1,.72-1.78,3.11,3.11,0,0,1,3.93,0,2.39,2.39,0,0,1,.73,1.78,2.35,2.35,0,0,1-.74,1.79,3.07,3.07,0,0,1-3.9,0A2.32,2.32,0,0,1,379.48,2.89Zm5.1,22.61h-4.82v-18h4.82Z" transform="translate(-1.21 0)"/>
    <path class="cls-1" d="M396.79,25.83a8.85,8.85,0,0,1-6.43-2.42A8.64,8.64,0,0,1,387.88,17v-.47a10.91,10.91,0,0,1,1-4.83,7.66,7.66,0,0,1,3-3.29,8.3,8.3,0,0,1,4.37-1.16,7.45,7.45,0,0,1,5.8,2.33,9.41,9.41,0,0,1,2.12,6.59v2H392.74a4.5,4.5,0,0,0,1.41,2.82,4.21,4.21,0,0,0,3,1.06,5.17,5.17,0,0,0,4.33-2l2.36,2.64A7.19,7.19,0,0,1,400.88,25,9.6,9.6,0,0,1,396.79,25.83Zm-.54-14.76a3,3,0,0,0-2.32,1,5,5,0,0,0-1.14,2.77h6.68v-.39A3.57,3.57,0,0,0,398.6,12,3.06,3.06,0,0,0,396.25,11.07Z" transform="translate(-1.21 0)"/>
    <path class="cls-1" d="M406.16,16.39A10.89,10.89,0,0,1,408,9.69,6.13,6.13,0,0,1,413.2,7.2a5.51,5.51,0,0,1,4.33,2V0h4.81V25.5H418l-.23-1.91a5.67,5.67,0,0,1-4.62,2.24,6.07,6.07,0,0,1-5.08-2.5A11.14,11.14,0,0,1,406.16,16.39Zm4.8.35a7.17,7.17,0,0,0,.87,3.88A2.88,2.88,0,0,0,414.39,22a3.2,3.2,0,0,0,3.14-1.88V13a3.16,3.16,0,0,0-3.11-1.87C412.11,11.11,411,13,411,16.74Z" transform="translate(-1.21 0)"/>
    <path class="cls-1" d="M434.33,25.83a8.83,8.83,0,0,1-6.43-2.42A8.6,8.6,0,0,1,425.42,17v-.47a10.78,10.78,0,0,1,1-4.83,7.71,7.71,0,0,1,3-3.29A8.33,8.33,0,0,1,433.8,7.2a7.45,7.45,0,0,1,5.8,2.33,9.46,9.46,0,0,1,2.12,6.59v2H430.28a4.44,4.44,0,0,0,1.4,2.82,4.24,4.24,0,0,0,3,1.06A5.18,5.18,0,0,0,439,20l2.36,2.64A7.22,7.22,0,0,1,438.41,25,9.55,9.55,0,0,1,434.33,25.83Zm-.55-14.76a3,3,0,0,0-2.31,1,5,5,0,0,0-1.14,2.77H437v-.39a3.57,3.57,0,0,0-.86-2.47A3.07,3.07,0,0,0,433.78,11.07Z" transform="translate(-1.21 0)"/>
    <path class="cls-1" d="M448.86,7.54,449,9.61a6.27,6.27,0,0,1,5.16-2.41,5.21,5.21,0,0,1,4.25,1.68,7.87,7.87,0,0,1,1.43,5V25.5h-4.8V14a3.09,3.09,0,0,0-.67-2.22,3,3,0,0,0-2.2-.68,3.29,3.29,0,0,0-3,1.72V25.5h-4.8v-18Z" transform="translate(-1.21 0)"/>
    <path class="cls-1" d="M463.45,2.89a2.38,2.38,0,0,1,.72-1.78,3.11,3.11,0,0,1,3.93,0,2.39,2.39,0,0,1,.73,1.78,2.35,2.35,0,0,1-.74,1.79,3.07,3.07,0,0,1-3.9,0A2.35,2.35,0,0,1,463.45,2.89Zm5.1,22.61h-4.82v-18h4.82Z" transform="translate(-1.21 0)"/>
    <path class="cls-1" d="M482.23,20.54a1.54,1.54,0,0,0-.88-1.39,9.9,9.9,0,0,0-2.79-.91c-4.28-.89-6.41-2.71-6.41-5.44a4.93,4.93,0,0,1,2-4,8,8,0,0,1,5.19-1.61,8.64,8.64,0,0,1,5.47,1.61,5.08,5.08,0,0,1,2,4.19H482a2.31,2.31,0,0,0-.66-1.7,2.81,2.81,0,0,0-2.08-.68,2.89,2.89,0,0,0-1.87.55,1.75,1.75,0,0,0-.67,1.4,1.47,1.47,0,0,0,.76,1.28,7.67,7.67,0,0,0,2.55.85,21.08,21.08,0,0,1,3,.81c2.53.92,3.8,2.54,3.8,4.83a4.67,4.67,0,0,1-2.11,4,9.09,9.09,0,0,1-5.44,1.52,9.6,9.6,0,0,1-4-.8,6.76,6.76,0,0,1-2.75-2.21,5.18,5.18,0,0,1-1-3h4.55a2.53,2.53,0,0,0,.95,2,3.78,3.78,0,0,0,2.36.68,3.52,3.52,0,0,0,2.08-.52A1.64,1.64,0,0,0,482.23,20.54Z" transform="translate(-1.21 0)"/>
  </g>
  <g>
    <path class="cls-1" d="M64,61.83l5.46-15.22h2l-6.71,18H63.2l-6.74-18h2Z" transform="translate(-1.21 0)"/>
    <path class="cls-1" d="M85.86,64.57a10,10,0,0,1-.38-2.5,7,7,0,0,1-2.66,2.1,8.19,8.19,0,0,1-3.43.73,6,6,0,0,1-4.19-1.44,4.69,4.69,0,0,1-1.6-3.65,4.79,4.79,0,0,1,2.18-4.15,10.45,10.45,0,0,1,6.08-1.53h3.61v-2a3.92,3.92,0,0,0-1.19-3A4.89,4.89,0,0,0,80.82,48,5.41,5.41,0,0,0,77.38,49,3.15,3.15,0,0,0,76,51.57H74a4.6,4.6,0,0,1,2-3.71,7.65,7.65,0,0,1,4.9-1.57,7,7,0,0,1,4.74,1.5A5.4,5.4,0,0,1,87.44,52v8.5a10.41,10.41,0,0,0,.55,3.9v.2Zm-6.24-1.42a6.67,6.67,0,0,0,3.56-1,5.68,5.68,0,0,0,2.29-2.57v-4H81.91a8.83,8.83,0,0,0-4.65,1.09,3.26,3.26,0,0,0-1.67,2.89,3.21,3.21,0,0,0,1.12,2.51A4.25,4.25,0,0,0,79.62,63.15Z" transform="translate(-1.21 0)"/>
    <path class="cls-1" d="M94.63,46.61l.07,3.07a7,7,0,0,1,2.52-2.53,6.58,6.58,0,0,1,3.34-.87,5.41,5.41,0,0,1,4.3,1.62,7.37,7.37,0,0,1,1.42,4.89V64.57h-2V52.77a5.49,5.49,0,0,0-1-3.59A4,4,0,0,0,100.08,48a5.05,5.05,0,0,0-3.27,1.16,6.88,6.88,0,0,0-2.1,3.11v12.3h-2v-18Z" transform="translate(-1.21 0)"/>
    <path class="cls-1" d="M139.11,64.57h-5l-9.7-15.9v15.9h-5V40.4h5l9.71,15.94V40.4h5Z" transform="translate(-1.21 0)"/>
    <path class="cls-1" d="M151.41,64.9A8.81,8.81,0,0,1,145,62.48,8.63,8.63,0,0,1,142.49,56v-.46a10.79,10.79,0,0,1,1-4.84,7.7,7.7,0,0,1,3-3.29,8.33,8.33,0,0,1,4.38-1.15,7.45,7.45,0,0,1,5.8,2.32,9.45,9.45,0,0,1,2.11,6.59v2H147.36a4.39,4.39,0,0,0,1.4,2.82,4.24,4.24,0,0,0,3,1.07,5.19,5.19,0,0,0,4.34-2l2.35,2.64a7.17,7.17,0,0,1-2.92,2.38A9.58,9.58,0,0,1,151.41,64.9Zm-.55-14.75a3,3,0,0,0-2.32,1,5,5,0,0,0-1.13,2.77h6.67V53.5a3.57,3.57,0,0,0-.86-2.48A3.12,3.12,0,0,0,150.86,50.15Z" transform="translate(-1.21 0)"/>
    <path class="cls-1" d="M160.77,55.46a10.86,10.86,0,0,1,1.88-6.69,6.13,6.13,0,0,1,5.16-2.49,5.48,5.48,0,0,1,4.33,2V39.07H177v25.5h-4.34l-.23-1.91a5.61,5.61,0,0,1-4.61,2.24,6.1,6.1,0,0,1-5.09-2.49A11.19,11.19,0,0,1,160.77,55.46Zm4.8.36a7.06,7.06,0,0,0,.88,3.87A2.85,2.85,0,0,0,169,61a3.21,3.21,0,0,0,3.14-1.88v-7.1a3.17,3.17,0,0,0-3.1-1.88C166.72,50.18,165.57,52.06,165.57,55.82Z" transform="translate(-1.21 0)"/>
    <path class="cls-1" d="M188.94,64.9a8.79,8.79,0,0,1-6.43-2.42A8.63,8.63,0,0,1,180,56v-.46a10.93,10.93,0,0,1,1-4.84,7.72,7.72,0,0,1,3-3.29,8.29,8.29,0,0,1,4.37-1.15,7.44,7.44,0,0,1,5.8,2.32,9.41,9.41,0,0,1,2.12,6.59v2H184.89A4.45,4.45,0,0,0,186.3,60a4.22,4.22,0,0,0,3,1.07,5.17,5.17,0,0,0,4.33-2L196,61.67A7.17,7.17,0,0,1,193,64.05,9.6,9.6,0,0,1,188.94,64.9Zm-.54-14.75a3,3,0,0,0-2.32,1,5.08,5.08,0,0,0-1.14,2.77h6.68V53.5a3.58,3.58,0,0,0-.87-2.48A3.09,3.09,0,0,0,188.4,50.15Z" transform="translate(-1.21 0)"/>
    <path class="cls-1" d="M209.15,51.11a12.85,12.85,0,0,0-1.73-.13c-1.81,0-3,.61-3.57,1.84V64.57h-4.8v-18h4.54l.13,2.14a4.44,4.44,0,0,1,4-2.47,5.11,5.11,0,0,1,1.49.21Z" transform="translate(-1.21 0)"/>
    <path class="cls-1" d="M216.52,64.57H211.7V39.07h4.82Z" transform="translate(-1.21 0)"/>
    <path class="cls-1" d="M230.88,64.57A5.38,5.38,0,0,1,230.4,63a5.78,5.78,0,0,1-4.53,1.94,6.38,6.38,0,0,1-4.38-1.52,4.9,4.9,0,0,1-1.73-3.85,5.08,5.08,0,0,1,2.11-4.39A10.42,10.42,0,0,1,228,53.6h2.21v-1a2.94,2.94,0,0,0-.64-2,2.52,2.52,0,0,0-2-.75,2.84,2.84,0,0,0-1.9.58A2,2,0,0,0,225,52h-4.8a4.83,4.83,0,0,1,1-2.89A6.39,6.39,0,0,1,223.84,47a10,10,0,0,1,3.95-.75A7.79,7.79,0,0,1,233.06,48,5.83,5.83,0,0,1,235,52.64v7.78a8.47,8.47,0,0,0,.72,3.87v.28Zm-4-3.33a4.09,4.09,0,0,0,2-.48,3.09,3.09,0,0,0,1.33-1.27V56.4h-1.79c-2.41,0-3.68.83-3.84,2.5l0,.28a1.88,1.88,0,0,0,.64,1.47A2.43,2.43,0,0,0,226.91,61.24Z" transform="translate(-1.21 0)"/>
    <path class="cls-1" d="M243.11,46.61l.15,2.08a6.28,6.28,0,0,1,5.17-2.41A5.24,5.24,0,0,1,252.68,48a7.82,7.82,0,0,1,1.42,5v11.6h-4.79V53.08a3.08,3.08,0,0,0-.67-2.21,3,3,0,0,0-2.2-.69,3.28,3.28,0,0,0-3,1.73V64.57h-4.8v-18Z" transform="translate(-1.21 0)"/>
    <path class="cls-1" d="M257,55.46a10.8,10.8,0,0,1,1.89-6.69A6.1,6.1,0,0,1,264,46.28a5.47,5.47,0,0,1,4.33,2V39.07h4.82v25.5h-4.33l-.24-1.91A5.61,5.61,0,0,1,264,64.9a6.1,6.1,0,0,1-5.09-2.49A11.19,11.19,0,0,1,257,55.46Zm4.8.36a7.06,7.06,0,0,0,.88,3.87A2.87,2.87,0,0,0,265.23,61a3.2,3.2,0,0,0,3.13-1.88v-7.1a3.16,3.16,0,0,0-3.1-1.88Q261.79,50.18,261.79,55.82Z" transform="translate(-1.21 0)"/>
  </g>
</svg>
